<svg id="Layer_1" data-name="Layer 1" xmlns="http://www.w3.org/2000/svg" viewBox="0 0 714 714"><defs><style>.cls-1{fill:#ff0;}.cls-2,.cls-3{fill:#fff;}.cls-3{stroke:#000;stroke-miterlimit:10;stroke-width:5px;}</style></defs><circle class="cls-1" cx="357" cy="357" r="357"/><path class="cls-1" d="M367.5,668.5a298.74,298.74,0,1,1,211.43-87.43A297.29,297.29,0,0,1,367.5,668.5Z" transform="translate(-10 -12)"/><path d="M367.5,79A290.84,290.84,0,1,1,254,101.87,290,290,0,0,1,367.5,79m0-15C198.22,64,61,201,61,370S198.22,676,367.5,676,674,539,674,370,536.78,64,367.5,64Z" transform="translate(-10 -12)"/><rect class="cls-1" x="152" y="176" width="417" height="278" rx="31.5"/><path d="M547.5,193A26.53,26.53,0,0,1,574,219.5v215A26.53,26.53,0,0,1,547.5,461h-354A26.53,26.53,0,0,1,167,434.5v-215A26.53,26.53,0,0,1,193.5,193h354m0-10h-354A36.5,36.5,0,0,0,157,219.5v215A36.5,36.5,0,0,0,193.5,471h354A36.5,36.5,0,0,0,584,434.5v-215A36.5,36.5,0,0,0,547.5,183Z" transform="translate(-10 -12)"/><path class="cls-1" d="M276,575V564a12,12,0,0,1,12-12H452a12,12,0,0,1,12,12v11Z" transform="translate(-10 -12)"/><path d="M452,557a7,7,0,0,1,7,7v6H281v-6a7,7,0,0,1,7-7H452m0-10H288a17,17,0,0,0-17,17v16H469V564a17,17,0,0,0-17-17Z" transform="translate(-10 -12)"/><polygon class="cls-1" points="321.79 539 334.32 454 381.68 454 394.21 539 321.79 539"/><path d="M387.37,471l6.22,42.22L398.42,546H337.58l4.83-32.78L348.63,471h38.74M396,461H340q-7,47.51-14,95h84q-7-47.5-14-95Z" transform="translate(-10 -12)"/><path class="cls-2" d="M175.5,432.5V219A17.52,17.52,0,0,1,193,201.5H547A17.52,17.52,0,0,1,564.5,219V432.5Z" transform="translate(-10 -12)"/><path d="M547,204a15,15,0,0,1,15,15V430H178V219a15,15,0,0,1,15-15H547m0-5H193a20,20,0,0,0-20,20V435H567V219a20,20,0,0,0-20-20Z" transform="translate(-10 -12)"/><path class="cls-1" d="M230.83,379.41c-4.14-.73-7.5-4.3-7.5-8v-181c0-3.65,3.36-5.87,7.5-4.94l127,28.51c4.14.93,7.5,4.56,7.5,8.09V396.89c0,3.53-3.36,5.8-7.5,5.07Z" transform="translate(-10 -12)"/><path d="M357.86,216.11c2.76.62,5,3,5,5.39V396.44c0,2.36-2.24,3.87-5,3.38l-127-22.61c-2.76-.5-5-2.88-5-5.31V191c0-2.44,2.24-3.92,5-3.3l127,28.45m0-4.27-127-28.59c-5.52-1.24-10,1.71-10,6.59V371c0,4.89,4.48,9.64,10,10.62l127,22.48c5.53,1,10-2.05,10-6.76V222.62c0-4.71-4.47-9.54-10-10.78Z" transform="translate(-10 -12)"/><path class="cls-1" d="M374,402.09c-4.13.74-7.5-1.54-7.5-5.07V222.22c0-3.55,3.38-7.19,7.53-8.12l127-28.5c4.15-.94,7.53,1.29,7.53,5v181c0,3.67-3.38,7.25-7.53,8Z" transform="translate(-10 -12)"/><path d="M501,187.8c2.77-.62,5,.87,5,3.32V372c0,2.45-2.26,4.84-5,5.33L374,400c-2.75.49-5-1-5-3.38V221.66c0-2.37,2.26-4.8,5-5.42L501,187.8m0-4.41L374,212c-5.54,1.25-10,6.09-10,10.81v174.7c0,4.71,4.48,7.74,10,6.76l127-22.48c5.54-1,10-5.74,10-10.64V190c0-4.9-4.49-7.86-10-6.61Z" transform="translate(-10 -12)"/><circle class="cls-3" cx="358" cy="435" r="2.5"/></svg>